<svg xmlns="http://www.w3.org/2000/svg" xmlns:xlink="http://www.w3.org/1999/xlink" width="250" zoomAndPan="magnify" viewBox="0 0 187.5 112.499997" height="150" preserveAspectRatio="xMidYMid meet" version="1.0"><defs><g/><clipPath id="9f80c44087"><path d="M 44 40 L 53.847656 40 L 53.847656 56.402344 L 44 56.402344 Z M 44 40 " clip-rule="nonzero"/></clipPath><clipPath id="3cfcaeffea"><path d="M 33.6875 40 L 44 40 L 44 56.402344 L 33.6875 56.402344 Z M 33.6875 40 " clip-rule="nonzero"/></clipPath><clipPath id="afdd0d4a88"><path d="M 48.75 54.65625 L 50.242188 54.65625 L 50.242188 56.152344 L 48.75 56.152344 Z M 48.75 54.65625 " clip-rule="nonzero"/></clipPath></defs><g clip-path="url(#9f80c44087)"><path fill="#ffffff" d="M 53.503906 40.128906 C 48.222656 40.128906 45.542969 41.464844 44.320312 42.386719 L 44.320312 56.25 C 44.746094 55.769531 46.992188 53.660156 53.503906 53.660156 C 53.636719 53.660156 53.753906 53.613281 53.847656 53.519531 C 53.941406 53.425781 53.988281 53.3125 53.988281 53.179688 L 53.988281 40.613281 C 53.988281 40.476562 53.941406 40.363281 53.847656 40.269531 C 53.753906 40.175781 53.636719 40.128906 53.503906 40.128906 Z M 53.503906 40.128906 " fill-opacity="1" fill-rule="nonzero"/></g><g clip-path="url(#3cfcaeffea)"><path fill="#ffffff" d="M 43.355469 42.386719 C 42.132812 41.464844 39.453125 40.128906 34.171875 40.128906 C 34.039062 40.128906 33.925781 40.175781 33.828125 40.269531 C 33.734375 40.363281 33.6875 40.476562 33.6875 40.613281 L 33.6875 53.179688 C 33.6875 53.3125 33.734375 53.425781 33.828125 53.519531 C 33.925781 53.613281 34.039062 53.660156 34.171875 53.660156 C 40.6875 53.660156 42.929688 55.769531 43.355469 56.25 Z M 43.355469 42.386719 " fill-opacity="1" fill-rule="nonzero"/></g><g clip-path="url(#afdd0d4a88)"><path fill="#ffffff" d="M 50.171875 56.40625 C 49.941406 56.167969 49.714844 55.925781 49.484375 55.6875 L 48.796875 56.40625 C 48.789062 56.417969 48.777344 56.417969 48.769531 56.414062 C 48.757812 56.410156 48.75 56.402344 48.75 56.390625 L 48.75 54.683594 C 48.75 54.667969 48.761719 54.65625 48.777344 54.65625 L 50.191406 54.65625 C 50.207031 54.65625 50.21875 54.667969 50.21875 54.683594 L 50.21875 56.390625 C 50.21875 56.402344 50.210938 56.410156 50.199219 56.414062 C 50.191406 56.417969 50.179688 56.417969 50.171875 56.40625 Z M 50.171875 56.40625 " fill-opacity="1" fill-rule="nonzero"/></g><g fill="#ffffff" fill-opacity="1"><g transform="translate(61.48606, 50.379855)"><g><path d="M 0.75 0 L 0.75 -7.375 L 6.234375 -7.375 L 6.234375 -6.140625 L 2.234375 -6.140625 L 2.234375 -4.5 L 5.953125 -4.5 L 5.953125 -3.25 L 2.234375 -3.25 L 2.234375 -1.25 L 6.359375 -1.25 L 6.359375 0 Z M 0.75 0 "/></g></g><g transform="translate(68.368913, 50.379855)"><g><path d="M 5.59375 0 L 4.1875 0 L 4.1875 -2.734375 C 4.1875 -3.304688 4.15625 -3.675781 4.09375 -3.84375 C 4.039062 -4.019531 3.941406 -4.148438 3.796875 -4.234375 C 3.660156 -4.328125 3.5 -4.375 3.3125 -4.375 C 3.070312 -4.375 2.851562 -4.304688 2.65625 -4.171875 C 2.457031 -4.046875 2.320312 -3.867188 2.25 -3.640625 C 2.175781 -3.421875 2.140625 -3.015625 2.140625 -2.421875 L 2.140625 0 L 0.734375 0 L 0.734375 -5.359375 L 2.046875 -5.359375 L 2.046875 -4.5625 C 2.515625 -5.164062 3.101562 -5.46875 3.8125 -5.46875 C 4.125 -5.46875 4.410156 -5.410156 4.671875 -5.296875 C 4.929688 -5.191406 5.125 -5.050781 5.25 -4.875 C 5.375 -4.695312 5.460938 -4.492188 5.515625 -4.265625 C 5.566406 -4.046875 5.59375 -3.726562 5.59375 -3.3125 Z M 5.59375 0 "/></g></g><g transform="translate(74.672316, 50.379855)"><g><path d="M 2.09375 0 L 0.6875 0 L 0.6875 -5.359375 L 1.984375 -5.359375 L 1.984375 -4.59375 C 2.210938 -4.945312 2.414062 -5.179688 2.59375 -5.296875 C 2.769531 -5.410156 2.976562 -5.46875 3.21875 -5.46875 C 3.53125 -5.46875 3.835938 -5.378906 4.140625 -5.203125 L 3.703125 -3.96875 C 3.472656 -4.125 3.253906 -4.203125 3.046875 -4.203125 C 2.847656 -4.203125 2.675781 -4.144531 2.53125 -4.03125 C 2.394531 -3.925781 2.285156 -3.726562 2.203125 -3.4375 C 2.128906 -3.15625 2.09375 -2.5625 2.09375 -1.65625 Z M 2.09375 0 "/></g></g><g transform="translate(78.688153, 50.379855)"><g><path d="M 0.40625 -2.75 C 0.40625 -3.21875 0.519531 -3.671875 0.75 -4.109375 C 0.988281 -4.554688 1.316406 -4.894531 1.734375 -5.125 C 2.160156 -5.351562 2.640625 -5.46875 3.171875 -5.46875 C 3.972656 -5.46875 4.632812 -5.203125 5.15625 -4.671875 C 5.675781 -4.148438 5.9375 -3.488281 5.9375 -2.6875 C 5.9375 -1.875 5.671875 -1.203125 5.140625 -0.671875 C 4.617188 -0.140625 3.960938 0.125 3.171875 0.125 C 2.679688 0.125 2.210938 0.015625 1.765625 -0.203125 C 1.328125 -0.429688 0.988281 -0.757812 0.75 -1.1875 C 0.519531 -1.613281 0.40625 -2.132812 0.40625 -2.75 Z M 1.875 -2.671875 C 1.875 -2.140625 2 -1.734375 2.25 -1.453125 C 2.5 -1.171875 2.804688 -1.03125 3.171875 -1.03125 C 3.535156 -1.03125 3.84375 -1.171875 4.09375 -1.453125 C 4.34375 -1.734375 4.46875 -2.140625 4.46875 -2.671875 C 4.46875 -3.203125 4.34375 -3.609375 4.09375 -3.890625 C 3.84375 -4.171875 3.535156 -4.3125 3.171875 -4.3125 C 2.804688 -4.3125 2.5 -4.171875 2.25 -3.890625 C 2 -3.609375 1.875 -3.203125 1.875 -2.671875 Z M 1.875 -2.671875 "/></g></g><g transform="translate(84.991556, 50.379855)"><g><path d="M 0.734375 0 L 0.734375 -7.375 L 2.15625 -7.375 L 2.15625 0 Z M 0.734375 0 "/></g></g><g transform="translate(87.858571, 50.379855)"><g><path d="M 0.734375 0 L 0.734375 -7.375 L 2.15625 -7.375 L 2.15625 0 Z M 0.734375 0 "/></g></g><g transform="translate(90.725587, 50.379855)"><g><path d="M 0.640625 -5.359375 L 1.9375 -5.359375 L 1.9375 -4.625 C 2.40625 -5.1875 2.960938 -5.46875 3.609375 -5.46875 C 4.296875 -5.46875 4.796875 -5.1875 5.109375 -4.625 C 5.578125 -5.1875 6.125 -5.46875 6.75 -5.46875 C 7.101562 -5.46875 7.410156 -5.398438 7.671875 -5.265625 C 7.941406 -5.128906 8.144531 -4.925781 8.28125 -4.65625 C 8.425781 -4.394531 8.5 -3.984375 8.5 -3.421875 L 8.5 0 L 7.078125 0 L 7.078125 -3.046875 C 7.078125 -3.628906 7.015625 -3.992188 6.890625 -4.140625 C 6.765625 -4.296875 6.578125 -4.375 6.328125 -4.375 C 6.128906 -4.375 5.941406 -4.3125 5.765625 -4.1875 C 5.597656 -4.070312 5.472656 -3.894531 5.390625 -3.65625 C 5.316406 -3.425781 5.28125 -3.0625 5.28125 -2.5625 L 5.28125 0 L 3.875 0 L 3.875 -2.9375 C 3.875 -3.457031 3.847656 -3.789062 3.796875 -3.9375 C 3.742188 -4.09375 3.664062 -4.203125 3.5625 -4.265625 C 3.457031 -4.335938 3.3125 -4.375 3.125 -4.375 C 2.90625 -4.375 2.707031 -4.316406 2.53125 -4.203125 C 2.363281 -4.085938 2.238281 -3.921875 2.15625 -3.703125 C 2.082031 -3.484375 2.046875 -3.113281 2.046875 -2.59375 L 2.046875 0 L 0.640625 0 Z M 0.640625 -5.359375 "/></g></g><g transform="translate(99.901044, 50.379855)"><g><path d="M 3.84375 -1.703125 L 5.25 -1.46875 C 4.863281 -0.40625 4.085938 0.125 2.921875 0.125 C 2.085938 0.125 1.445312 -0.117188 1 -0.609375 C 0.550781 -1.109375 0.328125 -1.78125 0.328125 -2.625 C 0.328125 -3.507812 0.554688 -4.203125 1.015625 -4.703125 C 1.484375 -5.210938 2.070312 -5.46875 2.78125 -5.46875 C 3.570312 -5.46875 4.191406 -5.207031 4.640625 -4.6875 C 5.097656 -4.175781 5.328125 -3.414062 5.328125 -2.40625 L 5.328125 -2.265625 L 1.765625 -2.265625 C 1.785156 -1.847656 1.898438 -1.519531 2.109375 -1.28125 C 2.328125 -1.050781 2.601562 -0.9375 2.9375 -0.9375 C 3.382812 -0.9375 3.6875 -1.191406 3.84375 -1.703125 Z M 3.921875 -3.140625 C 3.898438 -3.535156 3.789062 -3.835938 3.59375 -4.046875 C 3.394531 -4.265625 3.148438 -4.375 2.859375 -4.375 C 2.554688 -4.375 2.300781 -4.265625 2.09375 -4.046875 C 1.894531 -3.828125 1.796875 -3.535156 1.796875 -3.171875 L 1.796875 -3.140625 Z M 3.921875 -3.140625 "/></g></g><g transform="translate(105.640114, 50.379855)"><g><path d="M 5.59375 0 L 4.1875 0 L 4.1875 -2.734375 C 4.1875 -3.304688 4.15625 -3.675781 4.09375 -3.84375 C 4.039062 -4.019531 3.941406 -4.148438 3.796875 -4.234375 C 3.660156 -4.328125 3.5 -4.375 3.3125 -4.375 C 3.070312 -4.375 2.851562 -4.304688 2.65625 -4.171875 C 2.457031 -4.046875 2.320312 -3.867188 2.25 -3.640625 C 2.175781 -3.421875 2.140625 -3.015625 2.140625 -2.421875 L 2.140625 0 L 0.734375 0 L 0.734375 -5.359375 L 2.046875 -5.359375 L 2.046875 -4.5625 C 2.515625 -5.164062 3.101562 -5.46875 3.8125 -5.46875 C 4.125 -5.46875 4.410156 -5.410156 4.671875 -5.296875 C 4.929688 -5.191406 5.125 -5.050781 5.25 -4.875 C 5.375 -4.695312 5.460938 -4.492188 5.515625 -4.265625 C 5.566406 -4.046875 5.59375 -3.726562 5.59375 -3.3125 Z M 5.59375 0 "/></g></g><g transform="translate(111.943517, 50.379855)"><g><path d="M 3.203125 -5.359375 L 3.203125 -4.21875 L 2.21875 -4.21875 L 2.21875 -2.0625 C 2.21875 -1.632812 2.226562 -1.382812 2.25 -1.3125 C 2.269531 -1.238281 2.3125 -1.175781 2.375 -1.125 C 2.445312 -1.070312 2.53125 -1.046875 2.625 -1.046875 C 2.75 -1.046875 2.9375 -1.09375 3.1875 -1.1875 L 3.3125 -0.09375 C 2.976562 0.0507812 2.601562 0.125 2.1875 0.125 C 1.882812 0.125 1.617188 0.0664062 1.390625 -0.046875 C 1.160156 -0.171875 1.003906 -0.347656 0.921875 -0.578125 C 0.847656 -0.816406 0.8125 -1.253906 0.8125 -1.890625 L 0.8125 -4.21875 L 0.15625 -4.21875 L 0.15625 -5.359375 L 0.8125 -5.359375 L 0.8125 -6.421875 L 2.21875 -7.234375 L 2.21875 -5.359375 Z M 3.203125 -5.359375 "/></g></g><g transform="translate(115.379904, 50.379855)"><g/></g><g transform="translate(118.24692, 50.379855)"><g><path d="M 0.375 -2.40625 L 1.828125 -2.546875 C 1.910156 -2.054688 2.082031 -1.695312 2.34375 -1.46875 C 2.613281 -1.238281 2.976562 -1.125 3.4375 -1.125 C 3.914062 -1.125 4.273438 -1.222656 4.515625 -1.421875 C 4.765625 -1.628906 4.890625 -1.867188 4.890625 -2.140625 C 4.890625 -2.316406 4.835938 -2.46875 4.734375 -2.59375 C 4.628906 -2.71875 4.453125 -2.820312 4.203125 -2.90625 C 4.015625 -2.96875 3.613281 -3.078125 3 -3.234375 C 2.195312 -3.429688 1.632812 -3.671875 1.3125 -3.953125 C 0.863281 -4.359375 0.640625 -4.851562 0.640625 -5.4375 C 0.640625 -5.820312 0.742188 -6.175781 0.953125 -6.5 C 1.171875 -6.832031 1.476562 -7.082031 1.875 -7.25 C 2.28125 -7.414062 2.765625 -7.5 3.328125 -7.5 C 4.253906 -7.5 4.953125 -7.296875 5.421875 -6.890625 C 5.890625 -6.492188 6.140625 -5.953125 6.171875 -5.265625 L 4.671875 -5.203125 C 4.609375 -5.585938 4.472656 -5.859375 4.265625 -6.015625 C 4.054688 -6.179688 3.738281 -6.265625 3.3125 -6.265625 C 2.945312 -6.265625 2.644531 -6.203125 2.40625 -6.078125 C 2.175781 -5.953125 2.0625 -5.773438 2.0625 -5.546875 C 2.0625 -5.378906 2.140625 -5.234375 2.296875 -5.109375 C 2.472656 -4.953125 2.925781 -4.785156 3.65625 -4.609375 C 4.382812 -4.429688 4.921875 -4.253906 5.265625 -4.078125 C 5.609375 -3.898438 5.878906 -3.648438 6.078125 -3.328125 C 6.273438 -3.003906 6.375 -2.609375 6.375 -2.140625 C 6.375 -1.722656 6.253906 -1.328125 6.015625 -0.953125 C 5.785156 -0.585938 5.453125 -0.3125 5.015625 -0.125 C 4.585938 0.0507812 4.054688 0.140625 3.421875 0.140625 C 1.578125 0.140625 0.5625 -0.707031 0.375 -2.40625 Z M 0.375 -2.40625 "/></g></g><g transform="translate(125.129773, 50.379855)"><g><path d="M 0.078125 -5.359375 L 1.578125 -5.359375 L 2.859375 -1.546875 L 4.109375 -5.359375 L 5.5625 -5.359375 L 3.34375 0.734375 C 3.1875 1.128906 3.019531 1.421875 2.84375 1.609375 C 2.675781 1.804688 2.46875 1.945312 2.21875 2.03125 C 1.96875 2.125 1.675781 2.171875 1.34375 2.171875 C 1.0625 2.171875 0.789062 2.140625 0.53125 2.078125 L 0.40625 0.984375 C 0.625 1.023438 0.828125 1.046875 1.015625 1.046875 C 1.335938 1.046875 1.578125 0.945312 1.734375 0.75 C 1.898438 0.5625 2.023438 0.316406 2.109375 0.015625 Z M 0.078125 -5.359375 "/></g></g><g transform="translate(130.868842, 50.379855)"><g><path d="M 0.234375 -1.53125 L 1.65625 -1.75 C 1.78125 -1.175781 2.164062 -0.890625 2.8125 -0.890625 C 3.113281 -0.890625 3.351562 -0.941406 3.53125 -1.046875 C 3.71875 -1.148438 3.8125 -1.296875 3.8125 -1.484375 C 3.8125 -1.585938 3.773438 -1.675781 3.703125 -1.75 C 3.628906 -1.820312 3.472656 -1.878906 3.234375 -1.921875 C 2.097656 -2.179688 1.378906 -2.414062 1.078125 -2.625 C 0.648438 -2.90625 0.4375 -3.304688 0.4375 -3.828125 C 0.4375 -4.285156 0.617188 -4.671875 0.984375 -4.984375 C 1.347656 -5.304688 1.914062 -5.46875 2.6875 -5.46875 C 3.414062 -5.46875 3.957031 -5.347656 4.3125 -5.109375 C 4.675781 -4.867188 4.925781 -4.515625 5.0625 -4.046875 L 3.71875 -3.8125 C 3.601562 -4.238281 3.269531 -4.453125 2.71875 -4.453125 C 2.070312 -4.453125 1.75 -4.304688 1.75 -4.015625 C 1.75 -3.859375 1.851562 -3.738281 2.0625 -3.65625 C 2.28125 -3.582031 2.664062 -3.484375 3.21875 -3.359375 C 3.957031 -3.179688 4.476562 -2.972656 4.78125 -2.734375 C 5.082031 -2.492188 5.234375 -2.140625 5.234375 -1.671875 C 5.234375 -1.179688 5.03125 -0.757812 4.625 -0.40625 C 4.21875 -0.0507812 3.613281 0.125 2.8125 0.125 C 2.082031 0.125 1.503906 -0.0195312 1.078125 -0.3125 C 0.648438 -0.613281 0.367188 -1.019531 0.234375 -1.53125 Z M 0.234375 -1.53125 "/></g></g><g transform="translate(136.607912, 50.379855)"><g><path d="M 3.203125 -5.359375 L 3.203125 -4.21875 L 2.21875 -4.21875 L 2.21875 -2.0625 C 2.21875 -1.632812 2.226562 -1.382812 2.25 -1.3125 C 2.269531 -1.238281 2.3125 -1.175781 2.375 -1.125 C 2.445312 -1.070312 2.53125 -1.046875 2.625 -1.046875 C 2.75 -1.046875 2.9375 -1.09375 3.1875 -1.1875 L 3.3125 -0.09375 C 2.976562 0.0507812 2.601562 0.125 2.1875 0.125 C 1.882812 0.125 1.617188 0.0664062 1.390625 -0.046875 C 1.160156 -0.171875 1.003906 -0.347656 0.921875 -0.578125 C 0.847656 -0.816406 0.8125 -1.253906 0.8125 -1.890625 L 0.8125 -4.21875 L 0.15625 -4.21875 L 0.15625 -5.359375 L 0.8125 -5.359375 L 0.8125 -6.421875 L 2.21875 -7.234375 L 2.21875 -5.359375 Z M 3.203125 -5.359375 "/></g></g><g transform="translate(140.044299, 50.379855)"><g><path d="M 3.84375 -1.703125 L 5.25 -1.46875 C 4.863281 -0.40625 4.085938 0.125 2.921875 0.125 C 2.085938 0.125 1.445312 -0.117188 1 -0.609375 C 0.550781 -1.109375 0.328125 -1.78125 0.328125 -2.625 C 0.328125 -3.507812 0.554688 -4.203125 1.015625 -4.703125 C 1.484375 -5.210938 2.070312 -5.46875 2.78125 -5.46875 C 3.570312 -5.46875 4.191406 -5.207031 4.640625 -4.6875 C 5.097656 -4.175781 5.328125 -3.414062 5.328125 -2.40625 L 5.328125 -2.265625 L 1.765625 -2.265625 C 1.785156 -1.847656 1.898438 -1.519531 2.109375 -1.28125 C 2.328125 -1.050781 2.601562 -0.9375 2.9375 -0.9375 C 3.382812 -0.9375 3.6875 -1.191406 3.84375 -1.703125 Z M 3.921875 -3.140625 C 3.898438 -3.535156 3.789062 -3.835938 3.59375 -4.046875 C 3.394531 -4.265625 3.148438 -4.375 2.859375 -4.375 C 2.554688 -4.375 2.300781 -4.265625 2.09375 -4.046875 C 1.894531 -3.828125 1.796875 -3.535156 1.796875 -3.171875 L 1.796875 -3.140625 Z M 3.921875 -3.140625 "/></g></g><g transform="translate(145.783369, 50.379855)"><g><path d="M 0.640625 -5.359375 L 1.9375 -5.359375 L 1.9375 -4.625 C 2.40625 -5.1875 2.960938 -5.46875 3.609375 -5.46875 C 4.296875 -5.46875 4.796875 -5.1875 5.109375 -4.625 C 5.578125 -5.1875 6.125 -5.46875 6.75 -5.46875 C 7.101562 -5.46875 7.410156 -5.398438 7.671875 -5.265625 C 7.941406 -5.128906 8.144531 -4.925781 8.28125 -4.65625 C 8.425781 -4.394531 8.5 -3.984375 8.5 -3.421875 L 8.5 0 L 7.078125 0 L 7.078125 -3.046875 C 7.078125 -3.628906 7.015625 -3.992188 6.890625 -4.140625 C 6.765625 -4.296875 6.578125 -4.375 6.328125 -4.375 C 6.128906 -4.375 5.941406 -4.3125 5.765625 -4.1875 C 5.597656 -4.070312 5.472656 -3.894531 5.390625 -3.65625 C 5.316406 -3.425781 5.28125 -3.0625 5.28125 -2.5625 L 5.28125 0 L 3.875 0 L 3.875 -2.9375 C 3.875 -3.457031 3.847656 -3.789062 3.796875 -3.9375 C 3.742188 -4.09375 3.664062 -4.203125 3.5625 -4.265625 C 3.457031 -4.335938 3.3125 -4.375 3.125 -4.375 C 2.90625 -4.375 2.707031 -4.316406 2.53125 -4.203125 C 2.363281 -4.085938 2.238281 -3.921875 2.15625 -3.703125 C 2.082031 -3.484375 2.046875 -3.113281 2.046875 -2.59375 L 2.046875 0 L 0.640625 0 Z M 0.640625 -5.359375 "/></g></g></g></svg>